<svg xmlns="http://www.w3.org/2000/svg" width="640" height="860" viewBox="0 0 640 860">
    <rect width="640" height="860" fill="#fff"/>
    <rect x="0.5" y="0.5" width="639" height="859" rx="24" fill="#fff" stroke="#e3e8ef"/>
    <path d="M24 0H616Q640 0 640 24V400H0V24Q0 0 24 0Z" fill="#edf2f9"/>
    <text x="32" y="40" font-family="Helvetica Neue,Arial,sans-serif" font-size="13" font-weight="500" fill="#5a6a7e">C / 03</text>
    <g transform="translate(170 60)"><svg xmlns="http://www.w3.org/2000/svg" width="300" height="300" viewBox="0 0 100 100" aria-hidden="true"><defs><clipPath id="clip-c-dark-rounded-hero"><rect width="100" height="100" rx="22"/></clipPath></defs><g clip-path="url(#clip-c-dark-rounded-hero)"><rect width="100" height="100" fill="#0c1b36"/><g fill="#e6edf8"><path d="M71 35 C56 22 37 28 29 43 C18 65 36 84 56 80 C71 77 81 64 80 53 C73 69 60 76 47 71 C30 65 28 48 39 38 C47 30 59 30 67 37 Z"/><g transform="translate(72 32) rotate(42) scale(.48) translate(-50 -50)"><path d="M50 20 C53 20 55 24 55 29 V42 L78 57 V64 L55 56 V70 L63 77 V82 L50 78 L37 82 V77 L45 70 V56 L22 64 V57 L45 42 V29 C45 24 47 20 50 20 Z"/></g></g></g></svg></g>
    <text x="32" y="440" font-family="Helvetica Neue,Arial,sans-serif" font-size="15" font-weight="500" fill="#5a6a7e">Your world in motion</text>
    <text x="32" y="488" font-family="Helvetica Neue,Arial,sans-serif" font-size="36" font-weight="700" fill="#0c1b36">Orbit</text>
    <text x="32" y="524" font-family="Helvetica Neue,Arial,sans-serif" font-size="18" font-weight="500" fill="#5a6a7e">One open orbit flows into an aircraft heading beyond</text><text x="32" y="548" font-family="Helvetica Neue,Arial,sans-serif" font-size="18" font-weight="500" fill="#5a6a7e">the circle.</text>
    <path d="M32 584H608" stroke="#e3e8ef"/>
    <g transform="translate(32 608)"><svg xmlns="http://www.w3.org/2000/svg" width="68" height="68" viewBox="0 0 100 100" aria-hidden="true"><defs><clipPath id="clip-c-light-rounded-variant0"><rect width="100" height="100" rx="22"/></clipPath></defs><g clip-path="url(#clip-c-light-rounded-variant0)"><rect width="100" height="100" fill="#edf2f9"/><g fill="#0c1b36"><path d="M71 35 C56 22 37 28 29 43 C18 65 36 84 56 80 C71 77 81 64 80 53 C73 69 60 76 47 71 C30 65 28 48 39 38 C47 30 59 30 67 37 Z"/><g transform="translate(72 32) rotate(42) scale(.48) translate(-50 -50)"><path d="M50 20 C53 20 55 24 55 29 V42 L78 57 V64 L55 56 V70 L63 77 V82 L50 78 L37 82 V77 L45 70 V56 L22 64 V57 L45 42 V29 C45 24 47 20 50 20 Z"/></g></g></g></svg></g><text x="32" y="702" font-family="Helvetica Neue,Arial,sans-serif" font-size="13" font-weight="500" fill="#5a6a7e">Porcelain</text><g transform="translate(172 608)"><svg xmlns="http://www.w3.org/2000/svg" width="68" height="68" viewBox="0 0 100 100" aria-hidden="true"><defs><clipPath id="clip-c-dark-rounded-variant1"><rect width="100" height="100" rx="22"/></clipPath></defs><g clip-path="url(#clip-c-dark-rounded-variant1)"><rect width="100" height="100" fill="#0c1b36"/><g fill="#e6edf8"><path d="M71 35 C56 22 37 28 29 43 C18 65 36 84 56 80 C71 77 81 64 80 53 C73 69 60 76 47 71 C30 65 28 48 39 38 C47 30 59 30 67 37 Z"/><g transform="translate(72 32) rotate(42) scale(.48) translate(-50 -50)"><path d="M50 20 C53 20 55 24 55 29 V42 L78 57 V64 L55 56 V70 L63 77 V82 L50 78 L37 82 V77 L45 70 V56 L22 64 V57 L45 42 V29 C45 24 47 20 50 20 Z"/></g></g></g></svg></g><text x="172" y="702" font-family="Helvetica Neue,Arial,sans-serif" font-size="13" font-weight="500" fill="#5a6a7e">Navy</text><g transform="translate(312 608)"><svg xmlns="http://www.w3.org/2000/svg" width="68" height="68" viewBox="0 0 100 100" aria-hidden="true"><defs><clipPath id="clip-c-mono-rounded-variant2"><rect width="100" height="100" rx="22"/></clipPath></defs><g clip-path="url(#clip-c-mono-rounded-variant2)"><rect width="100" height="100" fill="#e6edf8"/><g fill="#0c1b36"><path d="M71 35 C56 22 37 28 29 43 C18 65 36 84 56 80 C71 77 81 64 80 53 C73 69 60 76 47 71 C30 65 28 48 39 38 C47 30 59 30 67 37 Z"/><g transform="translate(72 32) rotate(42) scale(.48) translate(-50 -50)"><path d="M50 20 C53 20 55 24 55 29 V42 L78 57 V64 L55 56 V70 L63 77 V82 L50 78 L37 82 V77 L45 70 V56 L22 64 V57 L45 42 V29 C45 24 47 20 50 20 Z"/></g></g></g></svg></g><text x="312" y="702" font-family="Helvetica Neue,Arial,sans-serif" font-size="13" font-weight="500" fill="#5a6a7e">One colour</text>
    <g transform="translate(492 608)"><svg xmlns="http://www.w3.org/2000/svg" width="68" height="68" viewBox="0 0 100 100" aria-hidden="true"><defs><clipPath id="clip-c-dark-circle-circle"><circle cx="50" cy="50" r="50"/></clipPath></defs><g clip-path="url(#clip-c-dark-circle-circle)"><rect width="100" height="100" fill="#0c1b36"/><g fill="#e6edf8"><path d="M71 35 C56 22 37 28 29 43 C18 65 36 84 56 80 C71 77 81 64 80 53 C73 69 60 76 47 71 C30 65 28 48 39 38 C47 30 59 30 67 37 Z"/><g transform="translate(72 32) rotate(42) scale(.48) translate(-50 -50)"><path d="M50 20 C53 20 55 24 55 29 V42 L78 57 V64 L55 56 V70 L63 77 V82 L50 78 L37 82 V77 L45 70 V56 L22 64 V57 L45 42 V29 C45 24 47 20 50 20 Z"/></g></g></g></svg></g><text x="480" y="702" font-family="Helvetica Neue,Arial,sans-serif" font-size="13" font-weight="500" fill="#5a6a7e">Circle mask</text>
    <path d="M32 728H608" stroke="#e3e8ef"/>
    <text x="32" y="762" font-family="Helvetica Neue,Arial,sans-serif" font-size="13" font-weight="600" fill="#5a6a7e">Small-size check</text>
    <g transform="translate(240 744)"><svg xmlns="http://www.w3.org/2000/svg" width="40" height="40" viewBox="0 0 100 100" aria-hidden="true"><defs><clipPath id="clip-c-dark-rounded-small0"><rect width="100" height="100" rx="22"/></clipPath></defs><g clip-path="url(#clip-c-dark-rounded-small0)"><rect width="100" height="100" fill="#0c1b36"/><g fill="#e6edf8"><path d="M71 35 C56 22 37 28 29 43 C18 65 36 84 56 80 C71 77 81 64 80 53 C73 69 60 76 47 71 C30 65 28 48 39 38 C47 30 59 30 67 37 Z"/><g transform="translate(72 32) rotate(42) scale(.48) translate(-50 -50)"><path d="M50 20 C53 20 55 24 55 29 V42 L78 57 V64 L55 56 V70 L63 77 V82 L50 78 L37 82 V77 L45 70 V56 L22 64 V57 L45 42 V29 C45 24 47 20 50 20 Z"/></g></g></g></svg></g><text x="236" y="812" font-family="Helvetica Neue,Arial,sans-serif" font-size="12" font-weight="500" fill="#5a6a7e">40 px</text><g transform="translate(352 760)"><svg xmlns="http://www.w3.org/2000/svg" width="24" height="24" viewBox="0 0 100 100" aria-hidden="true"><defs><clipPath id="clip-c-dark-rounded-small1"><rect width="100" height="100" rx="22"/></clipPath></defs><g clip-path="url(#clip-c-dark-rounded-small1)"><rect width="100" height="100" fill="#0c1b36"/><g fill="#e6edf8"><path d="M71 35 C56 22 37 28 29 43 C18 65 36 84 56 80 C71 77 81 64 80 53 C73 69 60 76 47 71 C30 65 28 48 39 38 C47 30 59 30 67 37 Z"/><g transform="translate(72 32) rotate(42) scale(.48) translate(-50 -50)"><path d="M50 20 C53 20 55 24 55 29 V42 L78 57 V64 L55 56 V70 L63 77 V82 L50 78 L37 82 V77 L45 70 V56 L22 64 V57 L45 42 V29 C45 24 47 20 50 20 Z"/></g></g></g></svg></g><text x="348" y="812" font-family="Helvetica Neue,Arial,sans-serif" font-size="12" font-weight="500" fill="#5a6a7e">24 px</text><g transform="translate(464 768)"><svg xmlns="http://www.w3.org/2000/svg" width="16" height="16" viewBox="0 0 100 100" aria-hidden="true"><defs><clipPath id="clip-c-dark-rounded-small2"><rect width="100" height="100" rx="22"/></clipPath></defs><g clip-path="url(#clip-c-dark-rounded-small2)"><rect width="100" height="100" fill="#0c1b36"/><g fill="#e6edf8"><path d="M71 35 C56 22 37 28 29 43 C18 65 36 84 56 80 C71 77 81 64 80 53 C73 69 60 76 47 71 C30 65 28 48 39 38 C47 30 59 30 67 37 Z"/><g transform="translate(72 32) rotate(42) scale(.48) translate(-50 -50)"><path d="M50 20 C53 20 55 24 55 29 V42 L78 57 V64 L55 56 V70 L63 77 V82 L50 78 L37 82 V77 L45 70 V56 L22 64 V57 L45 42 V29 C45 24 47 20 50 20 Z"/></g></g></g></svg></g><text x="460" y="812" font-family="Helvetica Neue,Arial,sans-serif" font-size="12" font-weight="500" fill="#5a6a7e">16 px</text>
    <text x="32" y="835" font-family="Helvetica Neue,Arial,sans-serif" font-size="11" font-weight="500" fill="#5a6a7e">FlyRight / Identity study 01</text>
  </svg>