<svg xmlns="http://www.w3.org/2000/svg" viewBox="0 0 1024 1024" width="1024" height="1024" style="display:block"><defs>
  <clipPath id="c11defsq"><rect width="1024" height="1024" rx="230"/></clipPath>
  <linearGradient id="c11defg" x1="0" y1="1" x2="0.9" y2="0">
    <stop offset="0" stop-color="#0B1D3E"/><stop offset="0.55" stop-color="#16345F"/><stop offset="1" stop-color="#2E5C9E"/>
  </linearGradient>
  <radialGradient id="c11defglow" cx="0.74" cy="0.24" r="0.7">
    <stop offset="0" stop-color="#FFFFFF" stop-opacity="0.16"/><stop offset="1" stop-color="#FFFFFF" stop-opacity="0"/>
  </radialGradient>
  <linearGradient id="c11defrim" x1="0" y1="0" x2="1" y2="1">
    <stop offset="0" stop-color="#FFFFFF" stop-opacity="0.75"/>
    <stop offset="0.45" stop-color="#FFFFFF" stop-opacity="0.04"/>
    <stop offset="1" stop-color="#FFFFFF" stop-opacity="0.30"/>
  </linearGradient>
  <linearGradient id="c11defpl" x1="0" y1="0" x2="1" y2="1">
    <stop offset="0" stop-color="#FFFFFF"/><stop offset="1" stop-color="#D6E2F3"/>
  </linearGradient>
  <filter id="c11defsh" x="-40%" y="-40%" width="180%" height="180%">
    <feDropShadow dx="0" dy="18" stdDeviation="20" flood-color="#020818" flood-opacity="0.35"/>
  </filter>
  <radialGradient id="c11defglobe" cx="0.5" cy="0" r="0.6">
    <stop offset="0" stop-color="#2E5C9E" stop-opacity="1"/>
    <stop offset="1" stop-color="#0B1D3E" stop-opacity="1"/>
  </radialGradient>
  <linearGradient id="c11defrt" gradientUnits="userSpaceOnUse" x1="300" y1="640" x2="618" y2="529">
    <stop offset="0" stop-color="#2FD68C" stop-opacity="0.4"/><stop offset="1" stop-color="#2FD68C" stop-opacity="1"/>
  </linearGradient>
  <filter id="c11defbl" x="-20%" y="-20%" width="140%" height="140%"><feGaussianBlur stdDeviation="14"/></filter><filter id="c11defbl2" x="-30%" y="-30%" width="160%" height="160%"><feGaussianBlur stdDeviation="40"/></filter></defs>
<g clip-path="url(#c11defsq)">
  <rect width="1024" height="1024" fill="url(#c11defg)"/><rect width="1024" height="1024" fill="url(#c11defglow)"/>
  
  <circle cx="512" cy="1060" r="740" fill="none" stroke="#6FB3FF" stroke-opacity="0.3" stroke-width="150" filter="url(#c11defbl2)"/>
  
  <circle cx="512" cy="1060" r="700" fill="url(#c11defglobe)"/>
  <circle cx="512" cy="1060" r="700" fill="none" stroke="#4E9BF5" stroke-opacity="0.9" stroke-width="28" filter="url(#c11defbl)"/>
  <circle cx="512" cy="1060" r="700" fill="none" stroke="#4E9BF5" stroke-width="8"/>
  
  <g transform="translate(512 580) scale(1.3) translate(-512 -580)">
  <path d="M 618 529 Q 688 533 760 560" fill="none" stroke="#E6EDF8" stroke-opacity="0.5" stroke-width="20" stroke-linecap="round" stroke-dasharray="2 40"/>
  <path d="M 300 640 Q 410 555 618 529" fill="none" stroke="url(#c11defrt)" stroke-width="30" stroke-linecap="round"/>
  
  <circle cx="300" cy="640" r="100" fill="none" stroke="#2FD68C" stroke-opacity="0.22" stroke-width="9"/>
  <circle cx="300" cy="640" r="60" fill="none" stroke="#2FD68C" stroke-opacity="0.48" stroke-width="9"/>
  <circle cx="300" cy="640" r="28" fill="#2FD68C"/>
  <circle cx="770" cy="562" r="33" fill="none" stroke="#E6EDF8" stroke-width="13.200000000000001"/><circle cx="770" cy="562" r="9.9" fill="#E6EDF8"/>
  <g filter="url(#c11defsh)"><g transform="translate(628 527) rotate(93) scale(9.5) translate(-11.5 -12)">
    <path d="M21 16v-2l-8-5V3.5C13 2.67 12.33 2 11.5 2S10 2.67 10 3.5V9l-8 5v2l8-2.5V19l-2 1.5V22l3.5-1 3.5 1v-1.5L13 19v-5.5L21 16z" fill="url(#c11defpl)" stroke="url(#c11defrim)" stroke-width="0.3"/>
  </g></g></g>
</g></svg>