<svg xmlns="http://www.w3.org/2000/svg" viewBox="0 0 1024 1024" width="1024" height="1024" style="display:block"><defs>
  <clipPath id="c13defsq"><rect width="1024" height="1024" rx="230"/></clipPath>
  <linearGradient id="c13defg" x1="0" y1="1" x2="0.9" y2="0">
    <stop offset="0" stop-color="#0B1D3E"/><stop offset="0.55" stop-color="#16345F"/><stop offset="1" stop-color="#2E5C9E"/>
  </linearGradient>
  <radialGradient id="c13defglow" cx="0.74" cy="0.24" r="0.7">
    <stop offset="0" stop-color="#FFFFFF" stop-opacity="0.16"/><stop offset="1" stop-color="#FFFFFF" stop-opacity="0"/>
  </radialGradient>
  <linearGradient id="c13defrim" x1="0" y1="0" x2="1" y2="1">
    <stop offset="0" stop-color="#FFFFFF" stop-opacity="0.75"/>
    <stop offset="0.45" stop-color="#FFFFFF" stop-opacity="0.04"/>
    <stop offset="1" stop-color="#FFFFFF" stop-opacity="0.30"/>
  </linearGradient>
  <linearGradient id="c13defpl" x1="0" y1="0" x2="1" y2="1">
    <stop offset="0" stop-color="#FFFFFF"/><stop offset="1" stop-color="#D6E2F3"/>
  </linearGradient>
  <filter id="c13defsh" x="-40%" y="-40%" width="180%" height="180%">
    <feDropShadow dx="0" dy="18" stdDeviation="20" flood-color="#020818" flood-opacity="0.35"/>
  </filter>
  <radialGradient id="c13defglobe" cx="0.5" cy="0" r="0.6">
    <stop offset="0" stop-color="#2E5C9E" stop-opacity="1"/>
    <stop offset="1" stop-color="#0B1D3E" stop-opacity="1"/>
  </radialGradient>
  <linearGradient id="c13defrt" gradientUnits="userSpaceOnUse" x1="180" y1="800" x2="574" y2="560">
    <stop offset="0" stop-color="#2FD68C" stop-opacity="0.4"/><stop offset="1" stop-color="#2FD68C" stop-opacity="1"/>
  </linearGradient>
  <filter id="c13defbl" x="-20%" y="-20%" width="140%" height="140%"><feGaussianBlur stdDeviation="14"/></filter><filter id="c13defbl2" x="-30%" y="-30%" width="160%" height="160%"><feGaussianBlur stdDeviation="40"/></filter>
  <clipPath id="c13defgc"><circle cx="512" cy="1500" r="1400"/></clipPath></defs>
<g clip-path="url(#c13defsq)">
  <rect width="1024" height="1024" fill="url(#c13defg)"/><rect width="1024" height="1024" fill="url(#c13defglow)"/>
  
  <circle cx="512" cy="1500" r="1440" fill="none" stroke="#6FB3FF" stroke-opacity="0.35" stroke-width="150" filter="url(#c13defbl2)"/>
  
  <circle cx="512" cy="1500" r="1400" fill="url(#c13defglobe)"/>
  <circle cx="512" cy="1500" r="1400" fill="none" stroke="#4E9BF5" stroke-opacity="0.9" stroke-width="28" filter="url(#c13defbl)"/>
  <circle cx="512" cy="1500" r="1400" fill="none" stroke="#4E9BF5" stroke-width="8"/>
  
  <g clip-path="url(#c13defgc)" fill="none" stroke="#4E9BF5" stroke-width="5">
    <ellipse cx="512" cy="1500" rx="520" ry="1400" stroke-opacity="0.14"/>
    <ellipse cx="512" cy="1500" rx="1000" ry="1400" stroke-opacity="0.1"/>
    <ellipse cx="512" cy="1500" rx="1400" ry="900" stroke-opacity="0.1"/>
    <ellipse cx="512" cy="1500" rx="1400" ry="1150" stroke-opacity="0.08"/>
  </g>
  <path d="M 180 800 Q 470 560 850 470" fill="none" stroke="#E6EDF8" stroke-opacity="0.5" stroke-width="20" stroke-linecap="round" stroke-dasharray="2 42"/>
  <path d="M 180 800 Q 290 709 574 560" fill="none" stroke="url(#c13defrt)" stroke-width="30" stroke-linecap="round"/>
  
  <circle cx="180" cy="800" r="110.00000000000001" fill="none" stroke="#2FD68C" stroke-opacity="0.22" stroke-width="9.9"/>
  <circle cx="180" cy="800" r="66" fill="none" stroke="#2FD68C" stroke-opacity="0.48" stroke-width="9.9"/>
  <circle cx="180" cy="800" r="30.800000000000004" fill="#2FD68C"/>
  <circle cx="852" cy="470" r="33" fill="none" stroke="#E6EDF8" stroke-width="13.200000000000001"/><circle cx="852" cy="470" r="9.9" fill="#E6EDF8"/>
  <g filter="url(#c13defsh)"><g transform="translate(588 553) rotate(67) scale(13) translate(-11.5 -12)">
    <path d="M21 16v-2l-8-5V3.5C13 2.67 12.33 2 11.5 2S10 2.67 10 3.5V9l-8 5v2l8-2.5V19l-2 1.5V22l3.5-1 3.5 1v-1.5L13 19v-5.5L21 16z" fill="url(#c13defpl)" stroke="url(#c13defrim)" stroke-width="0.3"/>
  </g></g>
</g></svg>